<svg width="19" height="18" viewBox="0 0 19 18" fill="none" xmlns="http://www.w3.org/2000/svg">
<path d="M5.88293 6.375H9.63293M5.88293 9H11.8829M5.88293 13.5V15.2516C5.88293 15.6513 5.88293 15.8511 5.96486 15.9537C6.0361 16.043 6.14414 16.0949 6.25834 16.0948C6.38965 16.0946 6.54569 15.9698 6.85775 15.7201L8.64684 14.2889C9.01232 13.9965 9.19506 13.8503 9.39855 13.7463C9.57908 13.6541 9.77125 13.5867 9.96985 13.5459C10.1937 13.5 10.4277 13.5 10.8957 13.5H12.7829C14.0431 13.5 14.6731 13.5 15.1544 13.2548C15.5778 13.039 15.922 12.6948 16.1377 12.2715C16.3829 11.7902 16.3829 11.1601 16.3829 9.9V5.85C16.3829 4.58988 16.3829 3.95982 16.1377 3.47852C15.922 3.05516 15.5778 2.71095 15.1544 2.49524C14.6731 2.25 14.0431 2.25 12.7829 2.25H6.48293C5.22282 2.25 4.59276 2.25 4.11146 2.49524C3.68809 2.71095 3.34388 3.05516 3.12817 3.47852C2.88293 3.95982 2.88293 4.58988 2.88293 5.85V10.5C2.88293 11.1975 2.88293 11.5462 2.9596 11.8323C3.16765 12.6088 3.77413 13.2153 4.55059 13.4233C4.83672 13.5 5.18546 13.5 5.88293 13.5Z" stroke="black" strokeLinecap="round" strokeLinejoin="round"/>
</svg>
