<svg width="19" height="18" viewBox="0 0 19 18" fill="none" xmlns="http://www.w3.org/2000/svg">
<path d="M9.63293 1.5C11.8829 3 12.575 6.21902 12.6329 9C12.575 11.781 11.8829 15 9.63294 16.5M9.63293 1.5C7.38293 3 6.69087 6.21903 6.63294 9C6.69087 11.781 7.38294 15 9.63294 16.5M9.63293 1.5C5.4908 1.5 2.13293 4.85786 2.13293 9M9.63293 1.5C13.7751 1.5 17.1329 4.85786 17.1329 9M9.63294 16.5C13.7751 16.5 17.1329 13.1421 17.1329 9M9.63294 16.5C5.4908 16.5 2.13293 13.1421 2.13293 9M17.1329 9C15.6329 11.25 12.4139 11.9421 9.63293 12C6.85196 11.9421 3.63293 11.25 2.13293 9M17.1329 9C15.6329 6.75 12.4139 6.05794 9.63293 6C6.85196 6.05794 3.63293 6.75 2.13293 9" stroke="white" stroke-linecap="round" stroke-linejoin="round"/>
</svg>
