<svg width="17" height="16" viewBox="0 0 17 16" fill="none" xmlns="http://www.w3.org/2000/svg">
<path d="M8.63293 0.5C10.8829 2 11.575 5.21902 11.6329 8C11.575 10.781 10.8829 14 8.63294 15.5M8.63293 0.5C6.38293 2 5.69087 5.21903 5.63294 8C5.69087 10.781 6.38294 14 8.63294 15.5M8.63293 0.5C4.4908 0.5 1.13293 3.85786 1.13293 8M8.63293 0.5C12.7751 0.5 16.1329 3.85786 16.1329 8M8.63294 15.5C12.7751 15.5 16.1329 12.1421 16.1329 8M8.63294 15.5C4.4908 15.5 1.13293 12.1421 1.13293 8M16.1329 8C14.6329 10.25 11.4139 10.9421 8.63293 11C5.85196 10.9421 2.63293 10.25 1.13293 8M16.1329 8C14.6329 5.75 11.4139 5.05794 8.63293 5C5.85196 5.05794 2.63293 5.75 1.13293 8" stroke="black" stroke-linecap="round" stroke-linejoin="round"/>
</svg>
