<svg width="20" height="20" viewBox="0 0 20 20" fill="none" xmlns="http://www.w3.org/2000/svg">
<path d="M1.66675 5.83334L8.47085 10.5962C9.02182 10.9819 9.29731 11.1747 9.59697 11.2494C9.86166 11.3154 10.1385 11.3154 10.4032 11.2494C10.7029 11.1747 10.9783 10.9819 11.5293 10.5962L18.3334 5.83334M5.66675 16.6667H14.3334C15.7335 16.6667 16.4336 16.6667 16.9684 16.3942C17.4388 16.1545 17.8212 15.7721 18.0609 15.3017C18.3334 14.7669 18.3334 14.0668 18.3334 12.6667V7.33334C18.3334 5.93321 18.3334 5.23315 18.0609 4.69837C17.8212 4.22796 17.4388 3.84551 16.9684 3.60583C16.4336 3.33334 15.7335 3.33334 14.3334 3.33334H5.66675C4.26662 3.33334 3.56655 3.33334 3.03177 3.60583C2.56137 3.84551 2.17892 4.22796 1.93923 4.69837C1.66675 5.23315 1.66675 5.93321 1.66675 7.33334V12.6667C1.66675 14.0668 1.66675 14.7669 1.93923 15.3017C2.17892 15.7721 2.56137 16.1545 3.03177 16.3942C3.56655 16.6667 4.26662 16.6667 5.66675 16.6667Z" stroke="white" strokeWidth="1.66667" strokeLinecap="round" strokeLinejoin="round"/>
</svg>
