<svg width="59" height="20" viewBox="0 0 59 20" fill="none" xmlns="http://www.w3.org/2000/svg">
<path d="M10 4V16M4 10H16" stroke="#1A1A2E" stroke-width="2" stroke-linecap="round" stroke-linejoin="round"/>
<path d="M37.3714 4.81818V15H35.7308L30.9332 8.06463H30.8487V15H29.0043V4.81818H30.6548L35.4474 11.7585H35.5369V4.81818H37.3714ZM42.6824 15.1491C41.9167 15.1491 41.2555 14.9901 40.6987 14.6719C40.1452 14.3504 39.7193 13.8963 39.421 13.3097C39.1227 12.7197 38.9735 12.0253 38.9735 11.2266C38.9735 10.4411 39.1227 9.75166 39.421 9.15838C39.7226 8.56179 40.1435 8.09777 40.6838 7.76633C41.224 7.43158 41.8587 7.2642 42.5879 7.2642C43.0585 7.2642 43.5027 7.34044 43.9203 7.4929C44.3412 7.64205 44.7124 7.87405 45.0339 8.18892C45.3587 8.50379 45.6139 8.90483 45.7995 9.39205C45.9851 9.87595 46.0779 10.4527 46.0779 11.1222V11.674H39.8187V10.4609H44.3528C44.3495 10.1162 44.2749 9.80966 44.1291 9.54119C43.9833 9.26941 43.7794 9.05563 43.5176 8.89986C43.2591 8.74408 42.9574 8.66619 42.6127 8.66619C42.2449 8.66619 41.9217 8.75568 41.6433 8.93466C41.3649 9.11032 41.1478 9.34233 40.992 9.63068C40.8395 9.91572 40.7617 10.2289 40.7583 10.5703V11.6293C40.7583 12.0734 40.8395 12.4545 41.002 12.7727C41.1644 13.0876 41.3914 13.3295 41.6831 13.4986C41.9747 13.6643 42.3161 13.7472 42.7072 13.7472C42.969 13.7472 43.206 13.7107 43.4181 13.6378C43.6303 13.5616 43.8142 13.4505 43.97 13.3047C44.1258 13.1589 44.2434 12.9782 44.323 12.7628L46.0034 12.9517C45.8973 13.3958 45.6951 13.7836 45.3968 14.1151C45.1019 14.4432 44.724 14.6984 44.2633 14.8807C43.8026 15.0597 43.2756 15.1491 42.6824 15.1491ZM49.1355 15L46.9778 7.36364H48.8123L50.1547 12.733H50.2243L51.5964 7.36364H53.411L54.7832 12.7031H54.8578L56.1802 7.36364H58.0197L55.8571 15H53.9828L52.551 9.83949H52.4466L51.0147 15H49.1355Z" fill="#1A1A2E"/>
</svg>
