<svg width="14" height="14" viewBox="0 0 14 14" fill="none" xmlns="http://www.w3.org/2000/svg">
<mask id="mask0_10163_3783" style="mask-type:alpha" maskUnits="userSpaceOnUse" x="0" y="0" width="14" height="14">
<g clip-path="url(#clip0_10163_3783)">
<g clip-path="url(#clip1_10163_3783)">
<path fill-rule="evenodd" clip-rule="evenodd" d="M7.37456 3.11068C7.37456 2.99744 7.32958 2.88884 7.24951 2.80877C7.16944 2.7287 7.06083 2.68372 6.9476 2.68372H1.2809C0.941183 2.68372 0.615382 2.81867 0.375167 3.05888C0.134951 3.2991 0 3.6249 0 3.96461L0 12.5039C0 12.8437 0.134951 13.1695 0.375167 13.4097C0.615382 13.6499 0.941183 13.7848 1.2809 13.7848H9.82022C10.1599 13.7848 10.4857 13.6499 10.726 13.4097C10.9662 13.1695 11.1011 12.8437 11.1011 12.5039V6.83724C11.1011 6.72401 11.0561 6.61541 10.9761 6.53533C10.896 6.45526 10.7874 6.41028 10.6742 6.41028C10.5609 6.41028 10.4523 6.45526 10.3722 6.53533C10.2922 6.61541 10.2472 6.72401 10.2472 6.83724V12.5039C10.2472 12.6172 10.2022 12.7258 10.1221 12.8059C10.0421 12.8859 9.93346 12.9309 9.82022 12.9309H1.2809C1.16766 12.9309 1.05906 12.8859 0.978988 12.8059C0.898916 12.7258 0.853933 12.6172 0.853933 12.5039V3.96461C0.853933 3.85138 0.898916 3.74278 0.978988 3.6627C1.05906 3.58263 1.16766 3.53765 1.2809 3.53765H6.9476C7.06083 3.53765 7.16944 3.49266 7.24951 3.41259C7.32958 3.33252 7.37456 3.22392 7.37456 3.11068Z" fill="black"/>
<path fill-rule="evenodd" clip-rule="evenodd" d="M13.6629 0.548915C13.6629 0.435676 13.6179 0.327075 13.5379 0.247004C13.4578 0.166932 13.3492 0.121948 13.2359 0.121948L8.96628 0.121948C8.85304 0.121948 8.74444 0.166932 8.66437 0.247004C8.5843 0.327075 8.53932 0.435676 8.53932 0.548915C8.53932 0.662153 8.5843 0.770754 8.66437 0.850825C8.74444 0.930897 8.85304 0.975881 8.96628 0.975881H12.2053L5.24826 7.93202C5.20856 7.97171 5.17707 8.01884 5.15559 8.07071C5.1341 8.12258 5.12305 8.17817 5.12305 8.23431C5.12305 8.29045 5.1341 8.34604 5.15559 8.39791C5.17707 8.44977 5.20856 8.4969 5.24826 8.5366C5.28796 8.5763 5.33509 8.60779 5.38695 8.62927C5.43882 8.65076 5.49441 8.66181 5.55055 8.66181C5.60669 8.66181 5.66228 8.65076 5.71415 8.62927C5.76602 8.60779 5.81315 8.5763 5.85284 8.5366L12.809 1.57961V4.81858C12.809 4.93182 12.854 5.04042 12.934 5.12049C13.0141 5.20056 13.1227 5.24554 13.2359 5.24554C13.3492 5.24554 13.4578 5.20056 13.5379 5.12049C13.6179 5.04042 13.6629 4.93182 13.6629 4.81858V0.548915Z" fill="black"/>
</g>
</g>
</mask>
<g mask="url(#mask0_10163_3783)">
<rect y="0.121948" width="13.6629" height="13.6629" fill="white"/>
</g>
<defs>
<clipPath id="clip0_10163_3783">
<rect width="13.6629" height="13.6629" fill="white" transform="translate(0 0.121948)"/>
</clipPath>
<clipPath id="clip1_10163_3783">
<rect width="13.6629" height="13.6629" fill="white" transform="translate(0 0.121948)"/>
</clipPath>
</defs>
</svg>
