<svg width="34" height="43" viewBox="0 0 34 43" fill="none" xmlns="http://www.w3.org/2000/svg">
<path fill-rule="evenodd" clip-rule="evenodd" d="M27.2064 17.9323C28.9791 20.1345 30.0392 22.9196 30.0392 25.9492C30.0392 28.9788 28.9469 31.8489 27.1277 34.0636L26.9701 34.2549L26.9289 34.0122C26.8931 33.8067 26.8519 33.5976 26.8036 33.3885C25.8921 29.427 22.9233 26.0307 18.0368 23.2792C14.7367 21.426 12.8476 19.1972 12.3516 16.6619C12.0311 15.0231 12.2692 13.3772 12.7294 11.9669C13.1896 10.5584 13.8736 9.37671 14.4556 8.66626L16.3572 6.3666C16.6902 5.96265 17.3151 5.96265 17.6482 6.3666L27.2082 17.9323H27.2064ZM30.2129 15.6343L17.4709 0.220576C17.2274 -0.0735255 16.7726 -0.0735255 16.5291 0.220576L3.78892 15.6343L3.74774 15.6857C1.40383 18.5648 0 22.2233 0 26.2061C0 35.4809 7.61186 43 17 43C26.3881 43 34 35.4809 34 26.2061C34 22.2233 32.5962 18.5648 30.2523 15.6875L30.2111 15.6361L30.2129 15.6343ZM6.83832 17.8827L7.97714 16.5025L8.01117 16.7576C8.03802 16.9596 8.07205 17.1616 8.11144 17.3653C8.84917 21.194 11.4831 24.3848 15.8862 26.8563C19.7146 29.0125 21.9439 31.4911 22.5849 34.2088C22.8535 35.3427 22.9 36.4589 22.7837 37.4351L22.7765 37.4953L22.721 37.5219C20.993 38.3564 19.0502 38.8259 16.9982 38.8259C9.79819 38.8259 3.96082 33.0608 3.96082 25.9474C3.96082 22.893 5.03697 20.0884 6.83474 17.8791L6.83832 17.8827Z" fill="#4DA2FF"/>
</svg>
