<svg width="120" height="32" viewBox="0 0 120 32" fill="none" xmlns="http://www.w3.org/2000/svg">
<g clip-path="url(#clip0_10120_4569)">
<path fill-rule="evenodd" clip-rule="evenodd" d="M19.2046 13.3262C20.4558 14.9628 21.2042 17.0325 21.2042 19.2839C21.2042 21.5353 20.4331 23.6683 19.149 25.314L19.0377 25.4563L19.0086 25.2758C18.9834 25.1231 18.9543 24.9678 18.9202 24.8124C18.2768 21.8684 16.1812 19.3445 12.7318 17.2997C10.4023 15.9226 9.06888 14.2663 8.7188 12.3822C8.49256 11.1643 8.66064 9.94117 8.98544 8.89308C9.31032 7.84641 9.79312 6.96823 10.2039 6.44026L11.5462 4.73128C11.7814 4.43109 12.2225 4.43109 12.4575 4.73128L19.2058 13.3262H19.2046ZM21.3267 11.6185L12.3324 0.163919C12.1606 -0.0546398 11.8394 -0.0546398 11.6676 0.163919L2.67453 11.6185L2.64546 11.6567C0.990944 13.7963 0 16.5151 0 19.4748C0 26.3673 5.37308 31.9551 12 31.9551C18.627 31.9551 24 26.3673 24 19.4748C24 16.5151 23.009 13.7963 21.3546 11.658L21.3254 11.6198L21.3267 11.6185ZM4.82705 13.2893L5.63093 12.2637L5.65494 12.4532C5.6739 12.6033 5.69791 12.7534 5.72572 12.9048C6.24647 15.7501 8.10576 18.1213 11.2138 19.958C13.9162 21.5603 15.4898 23.4023 15.9422 25.422C16.1318 26.2647 16.1647 27.0941 16.0826 27.8196L16.0775 27.8643L16.0383 27.8841C14.8186 28.5042 13.4472 28.8531 11.9987 28.8531C6.91637 28.8531 2.79587 24.5688 2.79587 19.2826C2.79587 17.0128 3.55551 14.9285 4.82452 13.2867L4.82705 13.2893Z" fill="#2E90FA"/>
</g>
<path d="M42.416 24.336C41.12 24.336 39.976 24.104 38.984 23.64C37.992 23.176 37.216 22.512 36.656 21.648C36.096 20.784 35.816 19.744 35.816 18.528V17.856H38.936V18.528C38.936 19.536 39.248 20.296 39.872 20.808C40.496 21.304 41.344 21.552 42.416 21.552C43.504 21.552 44.312 21.336 44.84 20.904C45.384 20.472 45.656 19.92 45.656 19.248C45.656 18.784 45.52 18.408 45.248 18.12C44.992 17.832 44.608 17.6 44.096 17.424C43.6 17.232 42.992 17.056 42.272 16.896L41.72 16.776C40.568 16.52 39.576 16.2 38.744 15.816C37.928 15.416 37.296 14.896 36.848 14.256C36.416 13.616 36.2 12.784 36.2 11.76C36.2 10.736 36.44 9.864 36.92 9.144C37.416 8.408 38.104 7.848 38.984 7.464C39.88 7.064 40.928 6.864 42.128 6.864C43.328 6.864 44.392 7.072 45.32 7.488C46.264 7.888 47 8.496 47.528 9.312C48.072 10.112 48.344 11.12 48.344 12.336V13.056H45.224V12.336C45.224 11.696 45.096 11.184 44.84 10.8C44.6 10.4 44.248 10.112 43.784 9.936C43.32 9.744 42.768 9.648 42.128 9.648C41.168 9.648 40.456 9.832 39.992 10.2C39.544 10.552 39.32 11.04 39.32 11.664C39.32 12.08 39.424 12.432 39.632 12.72C39.856 13.008 40.184 13.248 40.616 13.44C41.048 13.632 41.6 13.8 42.272 13.944L42.824 14.064C44.024 14.32 45.064 14.648 45.944 15.048C46.84 15.448 47.536 15.976 48.032 16.632C48.528 17.288 48.776 18.128 48.776 19.152C48.776 20.176 48.512 21.08 47.984 21.864C47.472 22.632 46.736 23.24 45.776 23.688C44.832 24.12 43.712 24.336 42.416 24.336ZM54.3307 24.192C53.4027 24.192 52.5867 23.984 51.8827 23.568C51.1947 23.136 50.6587 22.544 50.2747 21.792C49.8907 21.04 49.6987 20.176 49.6987 19.2V12.096H52.7227V18.96C52.7227 19.856 52.9387 20.528 53.3707 20.976C53.8187 21.424 54.4507 21.648 55.2667 21.648C56.1947 21.648 56.9147 21.344 57.4267 20.736C57.9387 20.112 58.1947 19.248 58.1947 18.144V12.096H61.2187V24H58.2427V22.44H57.8107C57.6187 22.84 57.2587 23.232 56.7307 23.616C56.2027 24 55.4027 24.192 54.3307 24.192ZM63.1437 24V12.096H66.1677V24H63.1437ZM64.6557 10.704C64.1117 10.704 63.6477 10.528 63.2637 10.176C62.8957 9.824 62.7117 9.36 62.7117 8.784C62.7117 8.208 62.8957 7.744 63.2637 7.392C63.6477 7.04 64.1117 6.864 64.6557 6.864C65.2157 6.864 65.6797 7.04 66.0477 7.392C66.4157 7.744 66.5997 8.208 66.5997 8.784C66.5997 9.36 66.4157 9.824 66.0477 10.176C65.6797 10.528 65.2157 10.704 64.6557 10.704ZM72.6365 24V7.2H83.4365V10.08H75.8045V14.088H82.7645V16.968H75.8045V21.12H83.5805V24H72.6365ZM88.2776 24.336C87.4296 24.336 86.6696 24.192 85.9976 23.904C85.3256 23.6 84.7896 23.168 84.3896 22.608C84.0056 22.032 83.8136 21.336 83.8136 20.52C83.8136 19.704 84.0056 19.024 84.3896 18.48C84.7896 17.92 85.3336 17.504 86.0216 17.232C86.7256 16.944 87.5256 16.8 88.4216 16.8H91.6856V16.128C91.6856 15.568 91.5096 15.112 91.1576 14.76C90.8056 14.392 90.2456 14.208 89.4776 14.208C88.7256 14.208 88.1656 14.384 87.7976 14.736C87.4296 15.072 87.1896 15.512 87.0776 16.056L84.2936 15.12C84.4856 14.512 84.7896 13.96 85.2056 13.464C85.6376 12.952 86.2056 12.544 86.9096 12.24C87.6296 11.92 88.5016 11.76 89.5256 11.76C91.0936 11.76 92.3336 12.152 93.2456 12.936C94.1576 13.72 94.6136 14.856 94.6136 16.344V20.784C94.6136 21.264 94.8376 21.504 95.2856 21.504H96.2456V24H94.2296C93.6376 24 93.1496 23.856 92.7656 23.568C92.3816 23.28 92.1896 22.896 92.1896 22.416V22.392H91.7336C91.6696 22.584 91.5256 22.84 91.3016 23.16C91.0776 23.464 90.7256 23.736 90.2456 23.976C89.7656 24.216 89.1096 24.336 88.2776 24.336ZM88.8056 21.888C89.6536 21.888 90.3416 21.656 90.8696 21.192C91.4136 20.712 91.6856 20.08 91.6856 19.296V19.056H88.6376C88.0776 19.056 87.6376 19.176 87.3176 19.416C86.9976 19.656 86.8376 19.992 86.8376 20.424C86.8376 20.856 87.0056 21.208 87.3416 21.48C87.6776 21.752 88.1656 21.888 88.8056 21.888ZM97.0166 24V12.096H99.9926V13.44H100.425C100.601 12.96 100.889 12.608 101.289 12.384C101.705 12.16 102.185 12.048 102.729 12.048H104.169V14.736H102.681C101.913 14.736 101.281 14.944 100.785 15.36C100.289 15.76 100.041 16.384 100.041 17.232V24H97.0166ZM105.092 24V12.096H108.068V13.656H108.5C108.692 13.24 109.052 12.848 109.58 12.48C110.108 12.096 110.908 11.904 111.98 11.904C112.908 11.904 113.716 12.12 114.404 12.552C115.108 12.968 115.652 13.552 116.036 14.304C116.42 15.04 116.612 15.904 116.612 16.896V24H113.588V17.136C113.588 16.24 113.364 15.568 112.916 15.12C112.484 14.672 111.86 14.448 111.044 14.448C110.116 14.448 109.396 14.76 108.884 15.384C108.372 15.992 108.116 16.848 108.116 17.952V24H105.092Z" fill="black"/>
<defs>
<clipPath id="clip0_10120_4569">
<rect width="24" height="32" fill="white"/>
</clipPath>
</defs>
</svg>
