<svg width="27" height="27" viewBox="0 0 27 27" fill="none" xmlns="http://www.w3.org/2000/svg">
<g clip-path="url(#clip0_10563_1831)">
<path d="M20.7568 5.16504C21.0057 5.76685 21.4833 6.2452 22.0847 6.49494L24.1937 7.36848C24.7955 7.61778 25.2737 8.09595 25.523 8.6978C25.7723 9.29965 25.7723 9.97588 25.523 10.5777L24.6501 12.6851C24.4007 13.2872 24.4003 13.9642 24.6508 14.566L25.5222 16.6728C25.6458 16.9709 25.7095 17.2904 25.7095 17.6131C25.7096 17.9358 25.646 18.2553 25.5225 18.5534C25.3991 18.8516 25.218 19.1224 24.9898 19.3506C24.7616 19.5787 24.4907 19.7597 24.1925 19.883L22.0851 20.756C21.4833 21.0048 21.0049 21.4824 20.7552 22.0839L19.8817 24.1928C19.6324 24.7946 19.1542 25.2728 18.5524 25.5221C17.9505 25.7714 17.2743 25.7714 16.6724 25.5221L14.565 24.6492C13.9631 24.4005 13.2872 24.401 12.6857 24.6506L10.5768 25.5229C9.97524 25.7716 9.29959 25.7714 8.69823 25.5223C8.09687 25.2732 7.61897 24.7956 7.3695 24.1944L6.4957 22.0848C6.24687 21.483 5.76923 21.0047 5.1678 20.7549L3.05888 19.8814C2.4573 19.6322 1.97927 19.1544 1.72988 18.5529C1.4805 17.9513 1.48016 17.2754 1.72894 16.6737L2.60186 14.5663C2.85054 13.9644 2.85003 13.2884 2.60045 12.6869L1.72879 10.5765C1.6052 10.2784 1.54157 9.95889 1.54151 9.63619C1.54146 9.3135 1.605 8.99396 1.72848 8.69583C1.85197 8.39771 2.033 8.12683 2.26121 7.89869C2.48942 7.67055 2.76036 7.48961 3.05852 7.36622L5.16593 6.4933C5.76721 6.24469 6.24528 5.76765 6.4952 5.16692L7.36874 3.058C7.61804 2.45615 8.09621 1.97798 8.69806 1.72869C9.29991 1.47939 9.97614 1.47939 10.578 1.72869L12.6854 2.6016C13.2873 2.85028 13.9632 2.84978 14.5647 2.60019L16.6745 1.73004C17.2763 1.48089 17.9524 1.48094 18.5541 1.73018C19.1559 1.97943 19.634 2.45746 19.8833 3.05915L20.7571 5.1687L20.7568 5.16504Z" fill="#0788F5"/>
<path fill-rule="evenodd" clip-rule="evenodd" d="M18.7557 10.191C18.9307 9.91613 18.9894 9.58295 18.9188 9.26481C18.8481 8.94666 18.654 8.6696 18.3791 8.49458C18.1042 8.31956 17.771 8.26092 17.4529 8.33155C17.1347 8.40218 16.8577 8.5963 16.6826 8.87121L11.8733 16.4283L9.6725 13.6773C9.46904 13.4228 9.17281 13.2595 8.84898 13.2234C8.52515 13.1874 8.20025 13.2814 7.94576 13.4849C7.69126 13.6883 7.52802 13.9846 7.49194 14.3084C7.45585 14.6322 7.54989 14.9571 7.75335 15.2116L11.0284 19.3054C11.1504 19.4581 11.3072 19.5795 11.4856 19.6595C11.664 19.7394 11.859 19.7756 12.0542 19.7651C12.2495 19.7545 12.4394 19.6975 12.6081 19.5987C12.7769 19.5 12.9196 19.3623 13.0245 19.1973L18.7557 10.191V10.191Z" fill="white"/>
</g>
<defs>
<clipPath id="clip0_10563_1831">
<rect width="26.2" height="26.2" fill="white" transform="translate(0.524902 0.524994)"/>
</clipPath>
</defs>
</svg>
